<?xml version="1.0" encoding="UTF-8"?><svg xmlns="http://www.w3.org/2000/svg" xmlns:xlink="http://www.w3.org/1999/xlink" contentScriptType="text/ecmascript" width="1440" zoomAndPan="magnify" contentStyleType="text/css" viewBox="0 0 1440 809.999993" height="809.999993" preserveAspectRatio="xMidYMid meet" version="1.0"><defs><clipPath id="clip-0"><path d="M 475 286 L 740.433594 286 L 740.433594 361 L 475 361 Z M 475 286 " clip-rule="nonzero"/></clipPath><clipPath id="clip-1"><path d="M 401 351 L 423 351 L 423 378 L 401 378 Z M 401 351 " clip-rule="nonzero"/></clipPath><clipPath id="clip-2"><path d="M 401.464844 351.300781 C 423.003906 353.035156 423.355469 359.550781 423.355469 359.550781 L 423.355469 369.972656 C 423.355469 369.972656 422.671875 376.019531 401.464844 377.664062 L 401.464844 351.300781 " clip-rule="nonzero"/></clipPath><clipPath id="clip-3"><path d="M 400.683594 343 L 432 343 L 432 386 L 400.683594 386 Z M 400.683594 343 " clip-rule="nonzero"/></clipPath><clipPath id="clip-4"><path d="M 413 355 L 672 355 L 672 364 L 413 364 Z M 413 355 " clip-rule="nonzero"/></clipPath><clipPath id="clip-5"><path d="M 413.222656 380.410156 L 413.222656 349.242188 L 425.757812 352.597656 C 425.757812 352.597656 637.15625 352.636719 639.929688 352.636719 C 642.703125 352.636719 646.722656 352.636719 649.101562 353.355469 C 649.101562 353.355469 670.875 360.226562 673.648438 361.148438 C 676.417969 362.078125 677.269531 362.800781 677.269531 365.175781 C 677.269531 367.554688 676.417969 368.277344 673.648438 369.199219 C 670.875 370.125 649.101562 376.996094 649.101562 376.996094 C 646.722656 377.710938 642.703125 377.710938 639.929688 377.710938 L 425.757812 377.710938 L 413.222656 380.410156 " clip-rule="nonzero"/></clipPath><clipPath id="clip-6"><path d="M 413 349 L 678 349 L 678 371 L 413 371 Z M 413 349 " clip-rule="nonzero"/></clipPath><clipPath id="clip-7"><path d="M 413.222656 380.410156 L 413.222656 349.242188 L 425.757812 352.597656 C 425.757812 352.597656 637.15625 352.636719 639.929688 352.636719 C 642.703125 352.636719 646.722656 352.636719 649.101562 353.355469 C 649.101562 353.355469 670.875 360.226562 673.648438 361.148438 C 676.417969 362.078125 677.269531 362.800781 677.269531 365.175781 C 677.269531 367.554688 676.417969 368.277344 673.648438 369.199219 C 670.875 370.125 649.101562 376.996094 649.101562 376.996094 C 646.722656 377.710938 642.703125 377.710938 639.929688 377.710938 L 425.757812 377.710938 L 413.222656 380.410156 " clip-rule="nonzero"/></clipPath><clipPath id="clip-8"><path d="M 422 349 L 445 349 L 445 381 L 422 381 Z M 422 349 " clip-rule="nonzero"/></clipPath><clipPath id="clip-9"><path d="M 413.222656 380.410156 L 413.222656 349.242188 L 425.757812 352.597656 C 425.757812 352.597656 637.15625 352.636719 639.929688 352.636719 C 642.703125 352.636719 646.722656 352.636719 649.101562 353.355469 C 649.101562 353.355469 670.875 360.226562 673.648438 361.148438 C 676.417969 362.078125 677.269531 362.800781 677.269531 365.175781 C 677.269531 367.554688 676.417969 368.277344 673.648438 369.199219 C 670.875 370.125 649.101562 376.996094 649.101562 376.996094 C 646.722656 377.710938 642.703125 377.710938 639.929688 377.710938 L 425.757812 377.710938 L 413.222656 380.410156 " clip-rule="nonzero"/></clipPath><clipPath id="clip-10"><path d="M 444 344 L 525 344 L 525 401 L 444 401 Z M 444 344 " clip-rule="nonzero"/></clipPath><clipPath id="clip-11"><path d="M 594.039062 340.464844 C 594.039062 340.464844 543.742188 346.644531 518.515625 362.957031 C 493.285156 379.277344 489.988281 396.503906 467.890625 399.710938 C 463.160156 400.398438 458.269531 400.742188 458.269531 400.742188 L 444.109375 341.496094 L 591.980469 337.285156 L 594.039062 340.464844 " clip-rule="nonzero"/></clipPath><clipPath id="clip-12"><path d="M 460 342 L 471 342 L 471 401 L 460 401 Z M 460 342 " clip-rule="nonzero"/></clipPath><clipPath id="clip-13"><path d="M 594.039062 340.464844 C 594.039062 340.464844 543.742188 346.644531 518.515625 362.957031 C 493.285156 379.277344 489.988281 396.503906 467.890625 399.710938 C 463.160156 400.398438 458.269531 400.742188 458.269531 400.742188 L 444.109375 341.496094 L 591.980469 337.285156 L 594.039062 340.464844 " clip-rule="nonzero"/></clipPath><clipPath id="clip-14"><path d="M 524 337 L 526 337 L 526 364 L 524 364 Z M 524 337 " clip-rule="nonzero"/></clipPath><clipPath id="clip-15"><path d="M 594.039062 340.464844 C 594.039062 340.464844 543.742188 346.644531 518.515625 362.957031 C 493.285156 379.277344 489.988281 396.503906 467.890625 399.710938 C 463.160156 400.398438 458.269531 400.742188 458.269531 400.742188 L 444.109375 341.496094 L 591.980469 337.285156 L 594.039062 340.464844 " clip-rule="nonzero"/></clipPath><clipPath id="clip-16"><path d="M 437 330 L 601 330 L 601 401.402344 L 437 401.402344 Z M 437 330 " clip-rule="nonzero"/></clipPath><clipPath id="clip-17"><path d="M 401 269.183594 L 423 269.183594 L 423 296 L 401 296 Z M 401 269.183594 " clip-rule="nonzero"/></clipPath><clipPath id="clip-18"><path d="M 401.464844 295.746094 C 423.003906 294.015625 423.355469 287.496094 423.355469 287.496094 L 423.355469 277.078125 C 423.355469 277.078125 422.671875 271.027344 401.464844 269.382812 L 401.464844 295.746094 " clip-rule="nonzero"/></clipPath><clipPath id="clip-19"><path d="M 400.683594 261 L 432 261 L 432 304 L 400.683594 304 Z M 400.683594 261 " clip-rule="nonzero"/></clipPath><clipPath id="clip-20"><path d="M 413 283 L 672 283 L 672 292 L 413 292 Z M 413 283 " clip-rule="nonzero"/></clipPath><clipPath id="clip-21"><path d="M 413.222656 266.636719 L 413.222656 297.804688 L 425.757812 294.449219 C 425.757812 294.449219 637.15625 294.410156 639.929688 294.410156 C 642.703125 294.410156 646.722656 294.410156 649.101562 293.691406 C 649.101562 293.691406 670.875 286.820312 673.648438 285.894531 C 676.417969 284.972656 677.269531 284.246094 677.269531 281.867188 C 677.269531 279.488281 676.417969 278.773438 673.648438 277.847656 C 670.875 276.921875 649.101562 270.050781 649.101562 270.050781 C 646.722656 269.332031 642.703125 269.332031 639.929688 269.332031 L 425.757812 269.332031 L 413.222656 266.636719 " clip-rule="nonzero"/></clipPath><clipPath id="clip-22"><path d="M 413 276 L 678 276 L 678 298 L 413 298 Z M 413 276 " clip-rule="nonzero"/></clipPath><clipPath id="clip-23"><path d="M 413.222656 266.636719 L 413.222656 297.804688 L 425.757812 294.449219 C 425.757812 294.449219 637.15625 294.410156 639.929688 294.410156 C 642.703125 294.410156 646.722656 294.410156 649.101562 293.691406 C 649.101562 293.691406 670.875 286.820312 673.648438 285.894531 C 676.417969 284.972656 677.269531 284.246094 677.269531 281.867188 C 677.269531 279.488281 676.417969 278.773438 673.648438 277.847656 C 670.875 276.921875 649.101562 270.050781 649.101562 270.050781 C 646.722656 269.332031 642.703125 269.332031 639.929688 269.332031 L 425.757812 269.332031 L 413.222656 266.636719 " clip-rule="nonzero"/></clipPath><clipPath id="clip-24"><path d="M 422 266 L 445 266 L 445 298 L 422 298 Z M 422 266 " clip-rule="nonzero"/></clipPath><clipPath id="clip-25"><path d="M 413.222656 266.636719 L 413.222656 297.804688 L 425.757812 294.449219 C 425.757812 294.449219 637.15625 294.410156 639.929688 294.410156 C 642.703125 294.410156 646.722656 294.410156 649.101562 293.691406 C 649.101562 293.691406 670.875 286.820312 673.648438 285.894531 C 676.417969 284.972656 677.269531 284.246094 677.269531 281.867188 C 677.269531 279.488281 676.417969 278.773438 673.648438 277.847656 C 670.875 276.921875 649.101562 270.050781 649.101562 270.050781 C 646.722656 269.332031 642.703125 269.332031 639.929688 269.332031 L 425.757812 269.332031 L 413.222656 266.636719 " clip-rule="nonzero"/></clipPath><clipPath id="clip-26"><path d="M 444 247 L 525 247 L 525 304 L 444 304 Z M 444 247 " clip-rule="nonzero"/></clipPath><clipPath id="clip-27"><path d="M 594.039062 307.835938 C 594.039062 307.835938 543.742188 301.65625 518.515625 285.339844 C 493.285156 269.023438 489.988281 251.796875 467.890625 248.589844 C 463.160156 247.902344 458.269531 247.558594 458.269531 247.558594 L 444.109375 306.804688 L 591.980469 311.015625 L 594.039062 307.835938 " clip-rule="nonzero"/></clipPath><clipPath id="clip-28"><path d="M 460 247 L 471 247 L 471 307 L 460 307 Z M 460 247 " clip-rule="nonzero"/></clipPath><clipPath id="clip-29"><path d="M 594.039062 307.835938 C 594.039062 307.835938 543.742188 301.65625 518.515625 285.339844 C 493.285156 269.023438 489.988281 251.796875 467.890625 248.589844 C 463.160156 247.902344 458.269531 247.558594 458.269531 247.558594 L 444.109375 306.804688 L 591.980469 311.015625 L 594.039062 307.835938 " clip-rule="nonzero"/></clipPath><clipPath id="clip-30"><path d="M 524 284 L 526 284 L 526 312 L 524 312 Z M 524 284 " clip-rule="nonzero"/></clipPath><clipPath id="clip-31"><path d="M 594.039062 307.835938 C 594.039062 307.835938 543.742188 301.65625 518.515625 285.339844 C 493.285156 269.023438 489.988281 251.796875 467.890625 248.589844 C 463.160156 247.902344 458.269531 247.558594 458.269531 247.558594 L 444.109375 306.804688 L 591.980469 311.015625 L 594.039062 307.835938 " clip-rule="nonzero"/></clipPath><clipPath id="clip-32"><path d="M 437 246.902344 L 601 246.902344 L 601 318 L 437 318 Z M 437 246.902344 " clip-rule="nonzero"/></clipPath><clipPath id="clip-33"><path d="M 631 309 L 643 309 L 643 338 L 631 338 Z M 631 309 " clip-rule="nonzero"/></clipPath><clipPath id="clip-34"><path d="M 444.472656 306.46875 L 444.316406 342.191406 L 555.972656 341.816406 C 555.972656 341.816406 576.664062 342.9375 610.496094 339.195312 C 628.367188 337.214844 641.722656 329.910156 642.207031 324.148438 C 641.722656 318.378906 628.367188 311.453125 610.496094 309.472656 C 576.664062 305.726562 555.972656 306.851562 555.972656 306.851562 L 444.476562 306.457031 " clip-rule="nonzero"/></clipPath><clipPath id="clip-35"><path d="M 627 306.238281 L 643 306.238281 L 643 342 L 627 342 Z M 627 306.238281 " clip-rule="nonzero"/></clipPath><clipPath id="clip-36"><path d="M 444.472656 306.46875 L 444.316406 342.191406 L 555.972656 341.816406 C 555.972656 341.816406 576.664062 342.9375 610.496094 339.195312 C 628.367188 337.214844 641.722656 329.910156 642.207031 324.148438 C 641.722656 318.378906 628.367188 311.453125 610.496094 309.472656 C 576.664062 305.726562 555.972656 306.851562 555.972656 306.851562 L 444.476562 306.457031 " clip-rule="nonzero"/></clipPath><clipPath id="clip-37"><path d="M 418 325 L 479.210938 325 L 479.210938 329 L 418 329 Z M 418 325 " clip-rule="nonzero"/></clipPath><clipPath id="clip-38"><path d="M 418.453125 325.6875 C 418.453125 325.6875 433.046875 328.4375 450.292969 328.777344 C 467.539062 329.121094 479.042969 326.222656 479.042969 326.222656 L 479.042969 323.820312 C 479.042969 323.820312 467.539062 321.074219 450.292969 321.417969 C 433.046875 321.757812 418.453125 325.6875 418.453125 325.6875 " clip-rule="nonzero"/></clipPath><clipPath id="clip-39"><path d="M 418 321 L 479.210938 321 L 479.210938 329 L 418 329 Z M 418 321 " clip-rule="nonzero"/></clipPath><clipPath id="clip-40"><path d="M 418.453125 325.6875 C 418.453125 325.6875 433.046875 328.4375 450.292969 328.777344 C 467.539062 329.121094 479.042969 326.222656 479.042969 326.222656 L 479.042969 323.820312 C 479.042969 323.820312 467.539062 321.074219 450.292969 321.417969 C 433.046875 321.757812 418.453125 325.6875 418.453125 325.6875 " clip-rule="nonzero"/></clipPath><clipPath id="clip-41"><path d="M 429 306 L 442 306 L 442 324 L 429 324 Z M 429 306 " clip-rule="nonzero"/></clipPath><clipPath id="clip-42"><path d="M 427.78125 323.117188 C 447.214844 323.414062 447.546875 317.699219 447.546875 317.699219 L 447.546875 311.246094 C 447.546875 311.246094 447.019531 305.890625 427.589844 306.179688 L 427.78125 323.117188 " clip-rule="nonzero"/></clipPath><clipPath id="clip-43"><path d="M 429 327.078125 L 442 327.078125 L 442 345 L 429 345 Z M 429 327.078125 " clip-rule="nonzero"/></clipPath><clipPath id="clip-44"><path d="M 427.78125 344.238281 C 447.214844 344.53125 447.546875 338.816406 447.546875 338.816406 L 447.546875 332.367188 C 447.546875 332.367188 447.019531 327.007812 427.589844 327.300781 L 427.78125 344.238281 " clip-rule="nonzero"/></clipPath></defs><path fill="rgb(83.529663%, 46.269226%, 21.569824%)" d="M 481.933594 293.304688 L 627.398438 293.933594 C 627.398438 293.933594 654.355469 292.042969 698.4375 298.347656 C 721.722656 301.679688 739.117188 313.96875 739.75 323.671875 C 739.117188 333.375 721.722656 345.039062 698.4375 348.367188 C 654.355469 354.675781 627.398438 352.78125 627.398438 352.78125 L 481.933594 353.414062 Z M 481.933594 293.304688 " fill-opacity="1" fill-rule="nonzero"/><g clip-path="url(#clip-0)"><path stroke-linecap="butt" transform="matrix(0.000000000000000054, 0.87585, -0.875409, 0.000000000000000054, 1244.719624, -29.902068)" fill="none" stroke-linejoin="miter" d="M 369.020529 871.34776 L 369.738581 705.179974 C 369.738581 705.179974 367.579965 674.386346 374.778326 624.030444 C 378.582665 597.431282 392.613672 577.561115 403.692192 576.838239 C 414.770711 577.561115 428.088126 597.431282 431.888005 624.030444 C 439.090826 674.386346 436.92775 705.179974 436.92775 705.179974 L 437.650262 871.34776 Z M 369.020529 871.34776 " stroke="rgb(13.729858%, 12.159729%, 12.548828%)" stroke-width="1.385" stroke-opacity="1" stroke-miterlimit="3.864"/></g><path fill="rgb(48.239136%, 47.44873%, 47.44873%)" d="M 401.464844 351.304688 C 423 353.035156 423.355469 359.550781 423.355469 359.550781 L 423.355469 369.972656 C 423.355469 369.972656 422.671875 376.019531 401.464844 377.664062 L 401.464844 351.300781 " fill-opacity="1" fill-rule="nonzero"/><g clip-path="url(#clip-1)"><g clip-path="url(#clip-2)"><path stroke-linecap="butt" transform="matrix(0.000000000000000142, 2.315748, 2.314583, -0.000000000000000142, -391.070425, -166.175626)" fill="none" stroke-linejoin="miter" d="M 229.429355 348.269179 L 229.429355 341.076332 M 226.909246 348.566208 L 226.278376 341.371674 M 231.851628 348.417694 L 232.482499 341.223159 " stroke="rgb(13.729858%, 12.159729%, 12.548828%)" stroke-width="0.524" stroke-opacity="1" stroke-miterlimit="3.864"/></g></g><g clip-path="url(#clip-3)"><path stroke-linecap="butt" transform="matrix(0.000000000000000142, 2.315748, 2.314583, -0.000000000000000142, -391.070425, -166.175626)" fill="none" stroke-linejoin="miter" d="M 223.4597 342.409591 C 224.208648 351.715399 227.022263 351.86729 227.022263 351.86729 L 231.522698 351.86729 C 231.522698 351.86729 234.133896 351.571947 234.844047 342.409591 Z M 223.4597 342.409591 " stroke="rgb(13.729858%, 12.159729%, 12.548828%)" stroke-width="0.612" stroke-opacity="1" stroke-miterlimit="3.864"/></g><path fill="rgb(88.62915%, 88.62915%, 88.62915%)" d="M 413.222656 380.410156 L 413.222656 349.242188 L 425.757812 352.597656 C 425.757812 352.597656 637.15625 352.636719 639.929688 352.636719 C 642.703125 352.636719 646.722656 352.636719 649.101562 353.355469 C 649.101562 353.355469 670.875 360.226562 673.648438 361.148438 C 676.417969 362.078125 677.269531 362.800781 677.269531 365.175781 C 677.269531 367.554688 676.417969 368.277344 673.648438 369.199219 C 670.875 370.125 649.101562 376.996094 649.101562 376.996094 C 646.722656 377.710938 642.703125 377.710938 639.929688 377.710938 L 425.757812 377.710938 L 413.222656 380.410156 " fill-opacity="1" fill-rule="nonzero"/><g clip-path="url(#clip-4)"><g clip-path="url(#clip-5)"><path fill="rgb(82.749939%, 82.348633%, 82.348633%)" d="M 423.6875 361.652344 L 641.15625 361.691406 C 641.15625 361.691406 640.382812 361.367188 645.960938 361.691406 C 651.003906 361.984375 661.878906 362.863281 671.527344 363.925781 C 665.578125 362.015625 648.839844 357.976562 648.839844 357.976562 C 648.222656 357.796875 647.125 357.648438 645.597656 357.5625 C 644.039062 357.476562 642.4375 357.480469 641.128906 357.480469 L 423.6875 357.480469 L 412.183594 355.421875 C 412.183594 355.421875 415.703125 361.652344 423.6875 361.652344 Z M 423.6875 361.652344 " fill-opacity="1" fill-rule="nonzero"/></g></g><g clip-path="url(#clip-6)"><g clip-path="url(#clip-7)"><path stroke-linecap="butt" transform="matrix(0.000000000000000142, 2.315748, 2.314583, -0.000000000000000142, -391.070425, -166.175626)" fill="none" stroke-linejoin="miter" d="M 227.929772 352.010742 L 227.94664 445.966668 C 227.94664 445.966668 227.806634 445.63251 227.94664 448.042502 C 228.073152 450.221283 228.452686 454.919754 228.911501 459.088297 C 228.086647 456.517977 226.342475 449.286314 226.342475 449.286314 C 226.264881 449.019662 226.200782 448.545427 226.163672 447.885548 C 226.126562 447.212168 226.128249 446.520224 226.128249 445.954855 L 226.128249 352.010742 L 225.239295 347.040555 C 225.239295 347.040555 227.929772 348.561145 227.929772 352.010742 Z M 227.929772 352.010742 " stroke="rgb(82.749939%, 82.348633%, 82.348633%)" stroke-width="0.524" stroke-opacity="1" stroke-miterlimit="3.864"/></g></g><g clip-path="url(#clip-8)"><g clip-path="url(#clip-9)"><path stroke-linecap="butt" transform="matrix(0.000000000000000142, 2.315748, 2.314583, -0.000000000000000142, -391.070425, -166.175626)" fill="none" stroke-linejoin="miter" d="M 235.5795 360.690425 L 222.862566 360.690425 M 235.72794 357.42816 L 223.009319 357.42816 M 235.72794 351.865602 L 223.009319 351.865602 " stroke="rgb(48.239136%, 47.44873%, 47.44873%)" stroke-width="0.524" stroke-opacity="1" stroke-miterlimit="3.864"/></g></g><path stroke-linecap="butt" transform="matrix(0.000000000000000142, 2.315748, 2.314583, -0.000000000000000142, -391.070425, -166.175626)" fill="none" stroke-linejoin="miter" d="M 236.029881 347.489475 L 222.570746 347.489475 L 224.019724 352.905206 C 224.019724 352.905206 224.036592 444.238495 224.036592 445.43674 C 224.036592 446.634985 224.036592 448.371597 224.346967 449.399388 C 224.346967 449.399388 227.314083 458.806457 227.712173 460.004702 C 228.113636 461.201259 228.425697 461.569171 229.451284 461.569171 C 230.478557 461.569171 230.790619 461.201259 231.188708 460.004702 C 231.588484 458.806457 234.5556 449.399388 234.5556 449.399388 C 234.864288 448.371597 234.864288 446.634985 234.864288 445.43674 L 234.864288 352.905206 Z M 236.029881 347.489475 " stroke="rgb(13.729858%, 12.159729%, 12.548828%)" stroke-width="0.524" stroke-opacity="1" stroke-miterlimit="3.864"/><path fill="rgb(100%, 100%, 100%)" d="M 594.039062 340.464844 C 594.039062 340.464844 543.742188 346.644531 518.515625 362.957031 C 493.285156 379.277344 489.988281 396.503906 467.890625 399.710938 C 463.160156 400.398438 458.269531 400.742188 458.269531 400.742188 L 444.109375 341.496094 L 591.980469 337.285156 L 594.039062 340.464844 " fill-opacity="1" fill-rule="nonzero"/><g clip-path="url(#clip-10)"><g clip-path="url(#clip-11)"><path fill="rgb(13.729858%, 12.159729%, 12.548828%)" d="M 439.910156 344.585938 L 449.609375 402.804688 L 480.074219 402.804688 L 524.632812 366.394531 L 524.632812 356.328125 C 516.214844 360.652344 508.28125 366.066406 501 372.929688 C 486.292969 386.785156 483.457031 395.40625 460.621094 397.503906 L 447.933594 344.421875 L 439.910156 344.585938 " fill-opacity="1" fill-rule="nonzero"/></g></g><g clip-path="url(#clip-12)"><g clip-path="url(#clip-13)"><path fill="rgb(13.729858%, 12.159729%, 12.548828%)" d="M 470.71875 342.175781 L 470.71875 402.453125 L 465.570312 402.453125 L 460.332031 342.519531 L 470.71875 342.175781 " fill-opacity="1" fill-rule="nonzero"/></g></g><g clip-path="url(#clip-14)"><g clip-path="url(#clip-15)"><path stroke-linecap="butt" transform="matrix(0.000000000000000142, 2.315748, 2.314583, -0.000000000000000142, -391.070425, -166.175626)" fill="none" stroke-linejoin="miter" d="M 228.639923 395.689311 L 217.405704 395.689311 " stroke="rgb(13.729858%, 12.159729%, 12.548828%)" stroke-width="0.262" stroke-opacity="1" stroke-miterlimit="3.864"/></g></g><g clip-path="url(#clip-16)"><path stroke-linecap="butt" transform="matrix(0.000000000000000142, 2.315748, 2.314583, -0.000000000000000142, -391.070425, -166.175626)" fill="none" stroke-linejoin="miter" d="M 218.780462 425.610001 C 218.780462 425.610001 221.449011 403.879571 228.49317 392.980602 C 235.540703 382.079946 242.979579 380.655553 244.364458 371.108408 C 244.661338 369.06464 244.809778 366.951678 244.809778 366.951678 L 219.225782 360.833877 L 217.40739 424.720599 Z M 218.780462 425.610001 " stroke="rgb(13.729858%, 12.159729%, 12.548828%)" stroke-width="0.524" stroke-opacity="1" stroke-miterlimit="3.864"/></g><path stroke-linecap="butt" transform="matrix(0.000000000000000142, 2.315748, 2.314583, -0.000000000000000142, -391.070425, -166.175626)" fill="none" stroke-linejoin="miter" d="M 231.38944 456.280016 L 227.49626 456.280016 M 233.614355 447.900737 L 225.234234 447.900737 M 233.614355 440.44799 L 225.234234 440.44799 M 233.614355 428.916145 L 225.234234 428.916145 M 233.614355 408.115621 L 225.234234 408.115621 " stroke="rgb(13.729858%, 12.159729%, 12.548828%)" stroke-width="0.524" stroke-opacity="1" stroke-miterlimit="3.864"/><path fill="rgb(13.729858%, 12.159729%, 12.548828%)" d="M 522.03125 371.726562 L 522.03125 374.816406 L 511.648438 374.816406 L 511.648438 371.726562 Z M 522.03125 371.726562 " fill-opacity="1" fill-rule="nonzero"/><path stroke-linecap="butt" transform="matrix(0.000000000000000142, 2.315748, 2.314583, -0.000000000000000142, -391.070425, -166.175626)" fill="none" stroke-linejoin="miter" d="M 232.430208 364.399922 L 232.430208 371.116846 " stroke="rgb(13.729858%, 12.159729%, 12.548828%)" stroke-width="0.524" stroke-opacity="1" stroke-miterlimit="3.864"/><path stroke-linecap="butt" transform="matrix(0.000000000000000142, 2.315748, 2.314583, -0.000000000000000142, -391.070425, -166.175626)" fill="none" stroke-linejoin="miter" d="M 232.430208 370.25951 L 232.430208 372.688066 " stroke="rgb(100%, 100%, 100%)" stroke-width="0.524" stroke-opacity="1" stroke-miterlimit="3.864"/><path fill="rgb(48.239136%, 47.44873%, 47.44873%)" d="M 401.464844 295.746094 C 423.003906 294.015625 423.355469 287.496094 423.355469 287.496094 L 423.355469 277.078125 C 423.355469 277.078125 422.671875 271.027344 401.464844 269.382812 L 401.464844 295.746094 " fill-opacity="1" fill-rule="nonzero"/><g clip-path="url(#clip-17)"><g clip-path="url(#clip-18)"><path stroke-linecap="butt" transform="matrix(0.000000000000000142, 2.315748, 2.314583, -0.000000000000000142, -391.070425, -166.175626)" fill="none" stroke-linejoin="miter" d="M 193.500093 348.269179 L 193.500093 341.076332 M 196.020202 348.566208 L 196.652759 341.371674 M 191.079507 348.417694 L 190.446949 341.223159 " stroke="rgb(13.729858%, 12.159729%, 12.548828%)" stroke-width="0.524" stroke-opacity="1" stroke-miterlimit="3.864"/></g></g><g clip-path="url(#clip-19)"><path stroke-linecap="butt" transform="matrix(0.000000000000000142, 2.315748, 2.314583, -0.000000000000000142, -391.070425, -166.175626)" fill="none" stroke-linejoin="miter" d="M 199.469749 342.409591 C 198.722487 351.715399 195.907185 351.86729 195.907185 351.86729 L 191.408437 351.86729 C 191.408437 351.86729 188.795553 351.571947 188.085402 342.409591 Z M 199.469749 342.409591 " stroke="rgb(13.729858%, 12.159729%, 12.548828%)" stroke-width="0.612" stroke-opacity="1" stroke-miterlimit="3.864"/></g><path fill="rgb(88.62915%, 88.62915%, 88.62915%)" d="M 413.222656 266.636719 L 413.222656 297.804688 L 425.757812 294.449219 C 425.757812 294.449219 637.15625 294.410156 639.929688 294.410156 C 642.703125 294.410156 646.722656 294.410156 649.101562 293.691406 C 649.101562 293.691406 670.875 286.820312 673.648438 285.894531 C 676.417969 284.972656 677.269531 284.246094 677.269531 281.867188 C 677.269531 279.488281 676.417969 278.773438 673.648438 277.847656 C 670.875 276.921875 649.101562 270.050781 649.101562 270.050781 C 646.722656 269.332031 642.703125 269.332031 639.929688 269.332031 L 425.757812 269.332031 L 413.222656 266.636719 " fill-opacity="1" fill-rule="nonzero"/><g clip-path="url(#clip-20)"><g clip-path="url(#clip-21)"><path fill="rgb(82.749939%, 82.348633%, 82.348633%)" d="M 423.6875 285.394531 L 641.15625 285.355469 C 641.15625 285.355469 640.382812 285.679688 645.960938 285.355469 C 651.003906 285.0625 661.878906 284.183594 671.527344 283.125 C 665.578125 285.035156 648.839844 289.074219 648.839844 289.074219 C 648.222656 289.25 647.125 289.402344 645.597656 289.484375 C 644.039062 289.566406 642.4375 289.566406 641.128906 289.566406 L 423.6875 289.566406 L 412.183594 291.625 C 412.183594 291.625 415.703125 285.394531 423.6875 285.394531 Z M 423.6875 285.394531 " fill-opacity="1" fill-rule="nonzero"/></g></g><g clip-path="url(#clip-22)"><g clip-path="url(#clip-23)"><path stroke-linecap="butt" transform="matrix(0.000000000000000142, 2.315748, 2.314583, -0.000000000000000142, -391.070425, -166.175626)" fill="none" stroke-linejoin="miter" d="M 194.999676 352.010742 L 194.982808 445.966668 C 194.982808 445.966668 195.122814 445.63251 194.982808 448.042502 C 194.856296 450.221283 194.476762 454.919754 194.019634 459.088297 C 194.844489 456.517977 196.58866 449.286314 196.58866 449.286314 C 196.664567 449.019662 196.730353 448.545427 196.765776 447.885548 C 196.8012 447.212168 196.8012 446.520224 196.8012 445.954855 L 196.8012 352.010742 L 197.690154 347.040555 C 197.690154 347.040555 194.999676 348.561145 194.999676 352.010742 Z M 194.999676 352.010742 " stroke="rgb(82.749939%, 82.348633%, 82.348633%)" stroke-width="0.524" stroke-opacity="1" stroke-miterlimit="3.864"/></g></g><g clip-path="url(#clip-24)"><g clip-path="url(#clip-25)"><path stroke-linecap="butt" transform="matrix(0.000000000000000142, 2.315748, 2.314583, -0.000000000000000142, -391.070425, -166.175626)" fill="none" stroke-linejoin="miter" d="M 187.339827 360.690425 L 200.058449 360.690425 M 187.191387 357.42816 L 199.910008 357.42816 M 187.191387 351.865602 L 199.910008 351.865602 " stroke="rgb(48.239136%, 47.44873%, 47.44873%)" stroke-width="0.524" stroke-opacity="1" stroke-miterlimit="3.864"/></g></g><path stroke-linecap="butt" transform="matrix(0.000000000000000142, 2.315748, 2.314583, -0.000000000000000142, -391.070425, -166.175626)" fill="none" stroke-linejoin="miter" d="M 186.899567 347.489475 L 200.358703 347.489475 L 198.909724 352.905206 C 198.909724 352.905206 198.892856 444.238495 198.892856 445.43674 C 198.892856 446.634985 198.892856 448.371597 198.582481 449.399388 C 198.582481 449.399388 195.615365 458.806457 195.215589 460.004702 C 194.8175 461.201259 194.503751 461.569171 193.476478 461.569171 C 192.449205 461.569171 192.140516 461.201259 191.74074 460.004702 C 191.340964 458.806457 188.373848 449.399388 188.373848 449.399388 C 188.063473 448.371597 188.063473 446.634985 188.063473 445.43674 L 188.063473 352.905206 Z M 186.899567 347.489475 " stroke="rgb(13.729858%, 12.159729%, 12.548828%)" stroke-width="0.524" stroke-opacity="1" stroke-miterlimit="3.864"/><path fill="rgb(100%, 100%, 100%)" d="M 594.039062 307.835938 C 594.039062 307.835938 543.742188 301.65625 518.515625 285.339844 C 493.285156 269.023438 489.988281 251.796875 467.890625 248.589844 C 463.160156 247.902344 458.269531 247.558594 458.269531 247.558594 L 444.109375 306.804688 L 591.980469 311.015625 L 594.039062 307.835938 " fill-opacity="1" fill-rule="nonzero"/><g clip-path="url(#clip-26)"><g clip-path="url(#clip-27)"><path fill="rgb(13.729858%, 12.159729%, 12.548828%)" d="M 439.910156 303.710938 L 449.609375 245.496094 L 480.074219 245.496094 L 524.632812 281.90625 L 524.632812 291.96875 C 516.214844 287.648438 508.28125 282.230469 501 275.371094 C 486.292969 261.515625 483.457031 252.894531 460.621094 250.792969 L 447.933594 303.878906 L 439.910156 303.710938 " fill-opacity="1" fill-rule="nonzero"/></g></g><g clip-path="url(#clip-28)"><g clip-path="url(#clip-29)"><path fill="rgb(13.729858%, 12.159729%, 12.548828%)" d="M 470.71875 306.121094 L 470.71875 245.84375 L 465.570312 245.84375 L 460.332031 305.777344 L 470.71875 306.121094 " fill-opacity="1" fill-rule="nonzero"/></g></g><g clip-path="url(#clip-30)"><g clip-path="url(#clip-31)"><path stroke-linecap="butt" transform="matrix(0.000000000000000142, 2.315748, 2.314583, -0.000000000000000142, -391.070425, -166.175626)" fill="none" stroke-linejoin="miter" d="M 194.829307 395.689311 L 206.065214 395.689311 " stroke="rgb(13.729858%, 12.159729%, 12.548828%)" stroke-width="0.262" stroke-opacity="1" stroke-miterlimit="3.864"/></g></g><g clip-path="url(#clip-32)"><path stroke-linecap="butt" transform="matrix(0.000000000000000142, 2.315748, 2.314583, -0.000000000000000142, -391.070425, -166.175626)" fill="none" stroke-linejoin="miter" d="M 204.690456 425.610001 C 204.690456 425.610001 202.021907 403.879571 194.976061 392.980602 C 187.930214 382.079946 180.491339 380.655553 179.10646 371.108408 C 178.80958 369.06464 178.661139 366.951678 178.661139 366.951678 L 204.245135 360.833877 L 206.063527 424.720599 Z M 204.690456 425.610001 " stroke="rgb(13.729858%, 12.159729%, 12.548828%)" stroke-width="0.524" stroke-opacity="1" stroke-miterlimit="3.864"/></g><path stroke-linecap="butt" transform="matrix(0.000000000000000142, 2.315748, 2.314583, -0.000000000000000142, -391.070425, -166.175626)" fill="none" stroke-linejoin="miter" d="M 191.529888 456.280016 L 195.424755 456.280016 M 189.306659 447.900737 L 197.68678 447.900737 M 189.306659 440.44799 L 197.68678 440.44799 M 189.306659 428.916145 L 197.68678 428.916145 M 189.306659 408.115621 L 197.68678 408.115621 " stroke="rgb(13.729858%, 12.159729%, 12.548828%)" stroke-width="0.524" stroke-opacity="1" stroke-miterlimit="3.864"/><path fill="rgb(13.729858%, 12.159729%, 12.548828%)" d="M 522.03125 272.21875 L 522.03125 275.308594 L 511.648438 275.308594 L 511.648438 272.21875 Z M 522.03125 272.21875 " fill-opacity="1" fill-rule="nonzero"/><path fill="rgb(100%, 100%, 100%)" d="M 444.472656 306.46875 L 444.316406 342.191406 L 555.972656 341.816406 C 555.972656 341.816406 576.664062 342.9375 610.496094 339.195312 C 628.367188 337.214844 641.722656 329.910156 642.207031 324.148438 C 641.722656 318.378906 628.367188 311.453125 610.496094 309.472656 C 576.664062 305.726562 555.972656 306.851562 555.972656 306.851562 L 444.476562 306.457031 " fill-opacity="1" fill-rule="nonzero"/><g clip-path="url(#clip-33)"><g clip-path="url(#clip-34)"><path fill="rgb(13.729858%, 12.159729%, 12.548828%)" d="M 639.105469 309.988281 C 643.511719 309.988281 647.085938 316.195312 647.085938 323.855469 C 647.085938 331.515625 643.511719 337.722656 639.105469 337.722656 C 634.695312 337.722656 631.121094 331.515625 631.121094 323.855469 C 631.121094 316.195312 634.695312 309.988281 639.105469 309.988281 Z M 639.105469 309.988281 " fill-opacity="1" fill-rule="nonzero"/></g></g><g clip-path="url(#clip-35)"><g clip-path="url(#clip-36)"><path stroke-linecap="butt" transform="matrix(0.000000000000000142, 2.315748, 2.314583, -0.000000000000000142, -391.070425, -166.175626)" fill="none" stroke-linejoin="miter" d="M 205.619894 445.080642 C 205.619894 446.984333 208.30025 448.52855 211.608104 448.52855 C 214.915957 448.52855 217.596314 446.984333 217.596314 445.080642 C 217.596314 443.175263 214.915957 441.631046 211.608104 441.631046 C 208.30025 441.631046 205.619894 443.175263 205.619894 445.080642 Z M 205.619894 445.080642 " stroke="rgb(13.729858%, 12.159729%, 12.548828%)" stroke-width="0.262" stroke-opacity="1" stroke-miterlimit="3.864"/></g></g><path stroke-linecap="butt" transform="matrix(0.000000000000000142, 2.315748, 2.314583, -0.000000000000000142, -391.070425, -166.175626)" fill="none" stroke-linejoin="miter" d="M 204.100069 360.99083 L 219.526036 360.923323 L 219.364101 409.163663 C 219.364101 409.163663 219.848219 418.103248 218.232245 432.720152 C 217.377028 440.441239 214.222675 446.21138 211.734615 446.420651 C 209.243182 446.21138 206.252451 440.441239 205.397233 432.720152 C 203.779573 418.103248 204.265377 409.163663 204.265377 409.163663 L 204.095008 360.992518 Z M 204.100069 360.99083 " stroke="rgb(13.729858%, 12.159729%, 12.548828%)" stroke-width="0.524" stroke-opacity="1" stroke-miterlimit="3.864"/><path stroke-linecap="butt" transform="matrix(0.000000000000000142, 2.315748, 2.314583, -0.000000000000000142, -391.070425, -166.175626)" fill-opacity="1" fill="rgb(56.858826%, 56.079102%, 56.469727%)" fill-rule="nonzero" stroke-linejoin="miter" d="M 215.010419 428.899268 C 214.607269 430.775957 213.070577 431.287321 211.591236 430.970039 C 210.100087 431.277195 208.431822 430.821524 208.018551 428.899268 L 206.481858 429.231739 C 207.040196 431.825687 209.221254 432.915921 211.586175 432.569949 C 213.930855 432.92436 216.000583 431.768306 216.547112 429.231739 Z M 215.010419 428.899268 " stroke="rgb(13.729858%, 12.159729%, 12.548828%)" stroke-width="0.262" stroke-opacity="1" stroke-miterlimit="3.864"/><path fill="rgb(100%, 100%, 100%)" d="M 418.453125 325.6875 C 418.453125 325.6875 433.046875 328.4375 450.292969 328.777344 C 467.539062 329.121094 479.042969 326.222656 479.042969 326.222656 L 479.042969 323.820312 C 479.042969 323.820312 467.539062 321.074219 450.292969 321.417969 C 433.046875 321.757812 418.453125 325.6875 418.453125 325.6875 " fill-opacity="1" fill-rule="nonzero"/><g clip-path="url(#clip-37)"><g clip-path="url(#clip-38)"><path fill="rgb(82.749939%, 82.348633%, 82.348633%)" d="M 414.683594 325.179688 L 483.597656 325.179688 L 483.597656 330.074219 L 414.335938 330.074219 Z M 414.683594 325.179688 " fill-opacity="1" fill-rule="nonzero"/></g></g><g clip-path="url(#clip-39)"><g clip-path="url(#clip-40)"><path stroke-linecap="butt" transform="matrix(0.000000000000000142, 2.315748, 2.314583, -0.000000000000000142, -391.070425, -166.175626)" fill="none" stroke-linejoin="miter" d="M 212.179936 348.120664 L 212.179936 377.894526 L 214.293521 377.894526 L 214.293521 347.970461 Z M 212.179936 348.120664 " stroke="rgb(13.729858%, 12.159729%, 12.548828%)" stroke-width="0.262" stroke-opacity="1" stroke-miterlimit="3.864"/></g></g><path stroke-linecap="butt" transform="matrix(0.000000000000000142, 2.315748, 2.314583, -0.000000000000000142, -391.070425, -166.175626)" fill="none" stroke-linejoin="miter" d="M 212.399222 349.749265 C 212.399222 349.749265 213.586743 356.054397 213.733497 363.505457 C 213.881937 370.956517 212.630317 375.926704 212.630317 375.926704 L 211.592922 375.926704 C 211.592922 375.926704 210.407088 370.956517 210.555528 363.505457 C 210.702282 356.054397 212.399222 349.749265 212.399222 349.749265 Z M 212.399222 349.749265 " stroke="rgb(13.729858%, 12.159729%, 12.548828%)" stroke-width="0.262" stroke-opacity="1" stroke-miterlimit="3.864"/><path fill="rgb(13.729858%, 12.159729%, 12.548828%)" d="M 427.78125 323.117188 C 447.214844 323.414062 447.546875 317.699219 447.546875 317.699219 L 447.546875 311.246094 C 447.546875 311.246094 447.019531 305.890625 427.589844 306.179688 L 427.78125 323.117188 " fill-opacity="1" fill-rule="nonzero"/><g clip-path="url(#clip-41)"><g clip-path="url(#clip-42)"><path stroke-linecap="butt" transform="matrix(0.000000000000000142, 2.315748, 2.314583, -0.000000000000000142, -391.070425, -166.175626)" fill="none" stroke-linejoin="miter" d="M 202.620728 354.839275 L 211.741363 354.839275 M 202.620728 356.410495 L 211.741363 356.410495 M 202.620728 357.983403 L 211.741363 357.983403 M 202.620728 359.554623 L 211.741363 359.554623 " stroke="rgb(48.239136%, 47.44873%, 47.44873%)" stroke-width="0.524" stroke-opacity="1" stroke-miterlimit="3.864"/></g></g><path stroke-linecap="butt" transform="matrix(0.000000000000000142, 2.315748, 2.314583, -0.000000000000000142, -391.070425, -166.175626)" fill="none" stroke-linejoin="miter" d="M 211.289295 353.779419 C 211.417493 362.175574 208.949676 362.319026 208.949676 362.319026 L 206.16305 362.319026 C 206.16305 362.319026 203.85042 362.09119 203.975244 353.696723 Z M 211.289295 353.779419 " stroke="rgb(13.729858%, 12.159729%, 12.548828%)" stroke-width="0.524" stroke-opacity="1" stroke-miterlimit="3.864"/><path fill="rgb(13.729858%, 12.159729%, 12.548828%)" d="M 427.78125 344.238281 C 447.214844 344.53125 447.546875 338.816406 447.546875 338.816406 L 447.546875 332.367188 C 447.546875 332.367188 447.019531 327.007812 427.589844 327.300781 L 427.78125 344.238281 " fill-opacity="1" fill-rule="nonzero"/><g clip-path="url(#clip-43)"><g clip-path="url(#clip-44)"><path stroke-linecap="butt" transform="matrix(0.000000000000000142, 2.315748, 2.314583, -0.000000000000000142, -391.070425, -166.175626)" fill="none" stroke-linejoin="miter" d="M 211.739676 354.839275 L 220.861997 354.839275 M 211.739676 356.410495 L 220.861997 356.410495 M 211.739676 357.983403 L 220.861997 357.983403 M 211.739676 359.554623 L 220.861997 359.554623 " stroke="rgb(48.239136%, 47.44873%, 47.44873%)" stroke-width="0.524" stroke-opacity="1" stroke-miterlimit="3.864"/></g></g><path stroke-linecap="butt" transform="matrix(0.000000000000000054, 0.87585, -0.875409, 0.000000000000000054, 1244.719624, -29.902068)" fill="none" stroke-linejoin="miter" d="M 427.178296 933.198284 C 427.517252 911.003312 420.992343 910.624025 420.992343 910.624025 L 413.624504 910.624025 C 413.624504 910.624025 407.50991 911.22196 407.839947 933.421394 L 427.178296 933.202746 Z M 427.178296 933.198284 " stroke="rgb(13.729858%, 12.159729%, 12.548828%)" stroke-width="1.385" stroke-opacity="1" stroke-miterlimit="3.864"/><path stroke-linecap="butt" transform="matrix(0.000000000000000054, 0.87585, -0.875409, 0.000000000000000054, 1244.719624, -29.902068)" fill-opacity="1" fill="rgb(100%, 100%, 100%)" fill-rule="nonzero" stroke-linejoin="miter" d="M 401.98849 914.541835 C 402.380966 874.930904 394.741069 874.248188 394.741069 874.248188 L 386.119983 874.248188 C 386.119983 874.248188 378.961761 875.323578 379.349777 914.930046 Z M 401.98849 914.541835 " stroke="rgb(13.729858%, 12.159729%, 12.548828%)" stroke-width="1.385" stroke-opacity="1" stroke-miterlimit="3.864"/><path stroke-linecap="butt" transform="matrix(0.000000000000000054, 0.87585, -0.875409, 0.000000000000000054, 1244.719624, -29.902068)" fill-opacity="1" fill="rgb(100%, 100%, 100%)" fill-rule="nonzero" stroke-linejoin="miter" d="M 431.691767 914.541835 C 432.084243 874.930904 424.444346 874.248188 424.444346 874.248188 L 415.8188 874.248188 C 415.8188 874.248188 408.665038 875.323578 409.053053 914.930046 L 431.687307 914.541835 Z M 431.691767 914.541835 " stroke="rgb(13.729858%, 12.159729%, 12.548828%)" stroke-width="1.385" stroke-opacity="1" stroke-miterlimit="3.864"/><path stroke-linecap="butt" transform="matrix(0.000000000000000054, 0.87585, -0.875409, 0.000000000000000054, 1244.719624, -29.902068)" fill="none" stroke-linejoin="miter" d="M 348.081057 905.13106 L 348.081057 887.371512 " stroke="rgb(13.729858%, 12.159729%, 12.548828%)" stroke-width="1.385" stroke-opacity="1" stroke-miterlimit="3.864"/><path stroke-linecap="butt" transform="matrix(0.000000000000000054, 0.87585, -0.875409, 0.000000000000000054, 1244.719624, -29.902068)" fill="none" stroke-linejoin="miter" d="M 348.081057 889.638309 L 348.081057 883.221668 " stroke="rgb(100%, 100%, 100%)" stroke-width="1.385" stroke-opacity="1" stroke-miterlimit="3.864"/></svg>